<?xml version="1.0" encoding="utf-8"?>
<!-- Generator: Adobe Illustrator 22.1.0, SVG Export Plug-In . SVG Version: 6.00 Build 0)  -->
<svg version="1.1" id="Layer_1" xmlns="http://www.w3.org/2000/svg" xmlns:xlink="http://www.w3.org/1999/xlink" x="0px" y="0px"
	 viewBox="0 0 500 500" style="enable-background:new 0 0 500 500;" xml:space="preserve">
<style type="text/css">
	.st0{fill:#FCE0A9;}
	.st1{fill:#F49037;}
	.st2{opacity:0.16;}
	.st3{fill:#1569FF;}
	.st4{opacity:0.77;fill:url(#SVGID_1_);enable-background:new    ;}
	.st5{opacity:0.67;fill:#1569FF;enable-background:new    ;}
	.st6{opacity:0.71;fill:#E2C18D;enable-background:new    ;}
	.st7{opacity:0.46;fill:#1569FF;enable-background:new    ;}
	.st8{fill:none;stroke:#1569FF;stroke-width:4;stroke-miterlimit:10;}
	.st9{fill:none;stroke:#FFFFFF;stroke-width:4;stroke-miterlimit:10;}
</style>
<rect class="st0" width="500" height="105"/>
<g>
	<polygon class="st1" points="500.2,500 0,500 0,102.5 239,0 500,0 	"/>
</g>
<g class="st2">
	<path class="st3" d="M67.8,73.8L0,103v92l267.2,268.5c0,0-60-47,21.5-75.4c77.4-27,135,20.2,135,20.2L67.8,73.8z"/>
</g>
<linearGradient id="SVGID_1_" gradientUnits="userSpaceOnUse" x1="222" y1="197.8" x2="454" y2="197.8" gradientTransform="matrix(1 0 0 -1 0 500)">
	<stop  offset="1.166074e-02" style="stop-color:#F49037"/>
	<stop  offset="6.428640e-02" style="stop-color:#C7885F"/>
	<stop  offset="0.1274" style="stop-color:#988089"/>
	<stop  offset="0.1928" style="stop-color:#7079AE"/>
	<stop  offset="0.2594" style="stop-color:#4F73CB"/>
	<stop  offset="0.3276" style="stop-color:#356FE2"/>
	<stop  offset="0.398" style="stop-color:#236BF2"/>
	<stop  offset="0.4722" style="stop-color:#186AFC"/>
	<stop  offset="0.5561" style="stop-color:#1569FF"/>
	<stop  offset="0.7089" style="stop-color:#1769FD"/>
	<stop  offset="0.7713" style="stop-color:#1E6BF7"/>
	<stop  offset="0.8173" style="stop-color:#2A6DEC"/>
	<stop  offset="0.8552" style="stop-color:#3C70DC"/>
	<stop  offset="0.8881" style="stop-color:#5374C8"/>
	<stop  offset="0.9175" style="stop-color:#6F79AE"/>
	<stop  offset="0.9444" style="stop-color:#907F90"/>
	<stop  offset="0.9692" style="stop-color:#B7856D"/>
	<stop  offset="0.9916" style="stop-color:#E28D47"/>
	<stop  offset="1" style="stop-color:#F49037"/>
</linearGradient>
<path class="st4" d="M429.3,428.6c0.4-18.9-29.9-48.8-94.7-48.8c-43.4,0-85.7,21.7-88.1,48.8L222,175.8c24.6,59.8,199.2,66.4,232,0
	L429.3,428.6z"/>
<ellipse class="st5" cx="338.1" cy="431.1" rx="91.5" ry="51.2"/>
<polygon class="st6" points="239,0 0,102.9 0,87.4 202,0 "/>
<path class="st7" d="M445.8,185.6c-4.8-10.6-16.9-20.6-35.9-28.2c-46.3-18.5-116.4-16.2-156.5,5.1c-12.5,6.7-20.7,14.4-24.5,22.5
	c0,0,17.3,32.9,108.3,32.9S445.8,185.6,445.8,185.6z"/>
<ellipse class="st8" cx="338.1" cy="167.9" rx="117.2" ry="54.1"/>
<ellipse class="st9" cx="338.1" cy="163.8" rx="117.2" ry="54.1"/>
</svg>
