<?xml version="1.0" encoding="utf-8"?>
<!-- Generator: Adobe Illustrator 22.1.0, SVG Export Plug-In . SVG Version: 6.00 Build 0)  -->
<svg version="1.1" id="Layer_2_1_" xmlns="http://www.w3.org/2000/svg" xmlns:xlink="http://www.w3.org/1999/xlink" x="0px" y="0px"
	 viewBox="0 0 1920 1080" style="enable-background:new 0 0 1920 1080;" xml:space="preserve">
<style type="text/css">
	.st0{display:none;fill:#FF7272;}
	.st1{fill:#FF7272;}
</style>
<path class="st0" d="M31,14c-3.9,0-7,3.1-7,7v47c0,3.9,3.1,7,7,7s7-3.1,7-7V21C38,17.1,34.9,14,31,14z"/>
<path class="st1" d="M1234.7,78.9c-2.8-1.7-6.4-0.9-8.2,1.9l-21,33.8c-1.7,2.8-0.9,6.4,1.9,8.2c2.8,1.7,6.4,0.9,8.2-1.9l21-33.8
	C1238.3,84.2,1237.4,80.6,1234.7,78.9z"/>
<path class="st1" d="M724.7,273.9c0.5-3.2-1.7-6.3-4.9-6.8l-39.3-6.4c-3.2-0.5-6.3,1.7-6.8,4.9c-0.5,3.2,1.7,6.3,4.9,6.8l39.3,6.4
	C721.1,279.4,724.1,277.2,724.7,273.9z"/>
<path class="st1" d="M1427.3,579c-3.3-0.1-6,2.4-6.2,5.7l-1.7,39.8c-0.1,3.3,2.4,6,5.7,6.2s6-2.4,6.2-5.7l1.7-39.8
	C1433.1,581.9,1430.6,579.2,1427.3,579z"/>
<path class="st1" d="M610.9,788.8c-3.2,0.6-5.3,3.8-4.7,7l7.8,39.1c0.6,3.2,3.8,5.3,7,4.7s5.3-3.8,4.7-7l-7.8-39.1
	C617.2,790.3,614.1,788.2,610.9,788.8z"/>
<path class="st1" d="M305.7,571.6c-3.2-0.7-6.4,1.3-7.1,4.5L290,615c-0.7,3.2,1.3,6.4,4.5,7.1s6.4-1.3,7.1-4.5l8.6-38.9
	C310.9,575.5,308.9,572.3,305.7,571.6z"/>
<path class="st1" d="M1182.5,900.2c-2.4,2.2-2.6,6-0.4,8.4L1209,938c2.2,2.4,6,2.6,8.4,0.4c2.4-2.2,2.6-6,0.4-8.4l-26.9-29.4
	C1188.6,898.1,1184.9,897.9,1182.5,900.2z"/>
<path class="st1" d="M966.7,684.7c-0.7-3.2-3.9-5.2-7.1-4.5l-38.8,8.8c-3.2,0.7-5.2,3.9-4.5,7.1c0.7,3.2,3.9,5.2,7.1,4.5l38.8-8.8
	C965.4,691.1,967.4,687.9,966.7,684.7z"/>
<path class="st1" d="M1575.8,322.8c-1.6-2.9-5.2-3.9-8.1-2.3l-34.8,19.3c-2.9,1.6-3.9,5.2-2.3,8.1s5.2,3.9,8.1,2.3l34.8-19.3
	C1576.4,329.3,1577.4,325.7,1575.8,322.8z"/>
<path class="st1" d="M318.8,181.3c-2.3-2.3-6-2.4-8.4-0.1L282,209c-2.3,2.3-2.4,6-0.1,8.4c2.3,2.3,6,2.4,8.4,0.1l28.5-27.8
	C321.1,187.4,321.1,183.6,318.8,181.3z"/>
<path class="st1" d="M375.1,770.9c0.5-3.2-1.7-6.3-4.9-6.8l-39.3-6.5c-3.2-0.5-6.3,1.7-6.8,4.9s1.7,6.3,4.9,6.8l39.3,6.5
	C371.5,776.3,374.6,774.1,375.1,770.9z"/>
<path class="st1" d="M745.6,941.8c1.5-2.9,0.3-6.5-2.6-8l-35.5-18c-2.9-1.5-6.5-0.3-8,2.6c-1.5,2.9-0.3,6.5,2.6,8l35.5,18
	C740.6,945.9,744.2,944.7,745.6,941.8z"/>
<path class="st1" d="M1035.1,199.8c-1.7-2.8-5.4-3.6-8.2-1.9l-33.9,21c-2.8,1.7-3.6,5.4-1.9,8.2c1.7,2.8,5.4,3.6,8.2,1.9l33.9-21
	C1035.9,206.3,1036.8,202.6,1035.1,199.8z"/>
<path class="st1" d="M1471.2,815.4c-2.6-1.9-6.3-1.4-8.3,1.2l-23.7,32c-1.9,2.6-1.4,6.3,1.2,8.3c2.6,1.9,6.3,1.4,8.3-1.2l23.7-32
	C1474.4,821.1,1473.9,817.4,1471.2,815.4z"/>
<path class="st1" d="M-14.3,68.4c1.4-3,0.2-6.5-2.8-7.9l-36-17.1c-3-1.4-6.5-0.2-7.9,2.8c-1.4,3-0.2,6.5,2.8,7.9l36,17.1
	C-19.3,72.7-15.7,71.4-14.3,68.4z"/>
<path class="st1" d="M67.7,158.4c0.1-3.3-2.4-6-5.7-6.2l-39.8-1.8c-3.3-0.1-6,2.4-6.2,5.7c-0.2,3.3,2.4,6,5.7,6.2l39.8,1.8
	C64.8,164.2,67.5,161.7,67.7,158.4z"/>
<path class="st1" d="M569,156.9c2-2.6,1.5-6.3-1.2-8.3l-31.8-24c-2.6-2-6.3-1.5-8.3,1.2c-2,2.6-1.5,6.3,1.2,8.3l31.8,24
	C563.3,160,567,159.5,569,156.9z"/>
<path class="st1" d="M189.1,650.7c-2.7-1.9-6.4-1.3-8.3,1.4l-23,32.5c-1.9,2.7-1.3,6.4,1.4,8.3c2.7,1.9,6.4,1.3,8.3-1.4l23-32.5
	C192.4,656.3,191.8,652.6,189.1,650.7z"/>
<path class="st1" d="M133.9,996.4c0.2-3.3-2.3-6.1-5.6-6.3l-39.8-2.5c-3.3-0.2-6.1,2.3-6.3,5.6c-0.2,3.3,2.3,6.1,5.6,6.3l39.8,2.5
	C130.9,1002.2,133.7,999.7,133.9,996.4z"/>
<path class="st1" d="M460.4,979.7c3.1-1,4.9-4.3,3.9-7.4l-12-38c-1-3.1-4.3-4.9-7.4-3.9s-4.9,4.3-3.9,7.4l12,38
	C453.9,979,457.3,980.7,460.4,979.7z"/>
<path class="st1" d="M1596,142.3c-1.9-2.7-5.6-3.3-8.3-1.4l-32.5,23c-2.7,1.9-3.3,5.6-1.4,8.3s5.6,3.3,8.3,1.4l32.5-23
	C1597.3,148.6,1597.9,144.9,1596,142.3z"/>
<path class="st1" d="M1036.8,969.2c-1.4-3-5-4.2-7.9-2.8L993,983.7c-3,1.4-4.2,5-2.8,7.9s5,4.2,7.9,2.8l35.9-17.3
	C1036.9,975.7,1038.2,972.1,1036.8,969.2z"/>
<path class="st1" d="M1753.7,532.4c-2.8-1.7-6.4-0.9-8.2,1.9l-21.2,33.7c-1.7,2.8-0.9,6.4,1.9,8.2s6.4,0.9,8.2-1.9l21.2-33.7
	C1757.3,537.8,1756.5,534.1,1753.7,532.4z"/>
<path class="st1" d="M1195.4,725.8c-1.3,3,0.2,6.5,3.2,7.8l36.7,15.4c3,1.3,6.5-0.2,7.8-3.2s-0.2-6.5-3.2-7.8l-36.7-15.4
	C1200.1,721.4,1196.6,722.8,1195.4,725.8z"/>
<path class="st1" d="M1792.5,357c3.3-0.1,5.9-2.8,5.8-6.1l-1-39.8c-0.1-3.3-2.8-5.9-6.1-5.8c-3.3,0.1-5.9,2.8-5.8,6.1l1,39.8
	C1786.5,354.5,1789.2,357.1,1792.5,357z"/>
<path class="st1" d="M1677.5,889.7c3-1.3,4.3-4.9,3-7.8l-16.4-36.3c-1.3-3-4.9-4.3-7.8-3s-4.3,4.9-3,7.8l16.4,36.3
	C1671,889.7,1674.5,891.1,1677.5,889.7z"/>
<path class="st1" d="M632.9,380.6c2.1,2.5,5.8,2.9,8.4,0.8L672,356c2.5-2.1,2.9-5.8,0.8-8.4s-5.8-2.9-8.4-0.8l-30.7,25.4
	C631.2,374.4,630.8,378.1,632.9,380.6z"/>
<path class="st1" d="M1018.1,497.9c2.1,2.5,5.9,2.8,8.4,0.7l30.4-25.8c2.5-2.1,2.8-5.9,0.7-8.4c-2.1-2.5-5.9-2.8-8.4-0.7l-30.4,25.8
	C1016.3,491.7,1016,495.4,1018.1,497.9z"/>
<path class="st1" d="M807.3,572.4c-2.6-1.9-6.4-1.4-8.3,1.3l-23.6,32.1c-1.9,2.6-1.4,6.4,1.3,8.3s6.4,1.4,8.3-1.3l23.6-32.1
	C810.5,578,809.9,574.3,807.3,572.4z"/>
<path class="st1" d="M912,377.2c2.6-2,3.1-5.7,1-8.3l-24.4-31.5c-2-2.6-5.7-3.1-8.3-1c-2.6,2-3.1,5.7-1,8.3l24.4,31.5
	C905.7,378.7,909.4,379.2,912,377.2z"/>
<path class="st1" d="M1342.9,393.3c-0.3-3.3-3.2-5.6-6.5-5.3l-39.6,4c-3.3,0.3-5.6,3.2-5.3,6.5c0.3,3.3,3.2,5.6,6.5,5.3l39.6-4
	C1340.9,399.4,1343.2,396.5,1342.9,393.3z"/>
<path class="st1" d="M1273,525.1c-2.4-2.3-6.1-2.2-8.4,0.2l-27.4,28.9c-2.3,2.4-2.2,6.1,0.2,8.4c2.4,2.3,6.1,2.2,8.4-0.2l27.4-28.9
	C1275.5,531.1,1275.4,527.3,1273,525.1z"/>
<path class="st1" d="M1407.3,108.5c2.2,2.4,6,2.5,8.4,0.3l29-27.3c2.4-2.2,2.5-6,0.3-8.4s-6-2.5-8.4-0.3l-29,27.3
	C1405.2,102.4,1405.1,106.1,1407.3,108.5z"/>
<path class="st1" d="M1607.5,620.5c3-1.3,4.4-4.8,3.1-7.8l-16-36.5c-1.3-3-4.8-4.4-7.8-3.1s-4.4,4.8-3.1,7.8l16,36.5
	C1601,620.5,1604.5,621.8,1607.5,620.5z"/>
<path class="st1" d="M1572.6,1018.4c3,1.3,6.5,0,7.8-3l16.3-36.4c1.3-3,0-6.5-3-7.8s-6.5,0-7.8,3l-16.3,36.4
	C1568.3,1013.6,1569.6,1017.1,1572.6,1018.4z"/>
<path class="st1" d="M915.2,107.3c2.2-2.4,2.1-6.2-0.4-8.4l-29.3-27c-2.4-2.2-6.2-2.1-8.4,0.4c-2.2,2.4-2.1,6.2,0.4,8.4l29.3,27
	C909.2,109.9,913,109.7,915.2,107.3z"/>
<path class="st1" d="M1782.4,141.5c3.3,0.3,6.2-2,6.5-5.3l4.2-39.6c0.3-3.3-2-6.2-5.3-6.5s-6.2,2-6.5,5.3l-4.2,39.6
	C1776.8,138.3,1779.2,141.2,1782.4,141.5z"/>
<path class="st1" d="M1829.9,958.5c-2.8,1.8-3.5,5.5-1.8,8.2l21.6,33.4c1.8,2.8,5.5,3.5,8.2,1.8c2.8-1.8,3.5-5.5,1.8-8.2l-21.6-33.4
	C1836.3,957.5,1832.7,956.7,1829.9,958.5z"/>
<path class="st1" d="M254.1,911c2.6-1.9,3.2-5.6,1.3-8.3l-23.5-32.2c-1.9-2.6-5.6-3.2-8.3-1.3s-3.2,5.6-1.3,8.3l23.5,32.2
	C247.7,912.4,251.4,913,254.1,911z"/>
<path class="st1" d="M160.3,470c2.8-1.7,3.8-5.3,2.1-8.1l-20.3-34.3c-1.7-2.8-5.3-3.8-8.1-2.1s-3.8,5.3-2.1,8.1l20.3,34.3
	C153.9,470.8,157.5,471.7,160.3,470z"/>
<path class="st1" d="M384.3,134.9c0.8-3.2-1.2-6.4-4.4-7.2l-38.7-9.4c-3.2-0.8-6.4,1.2-7.2,4.4c-0.8,3.2,1.2,6.4,4.4,7.2l38.7,9.4
	C380.3,140.1,383.5,138.1,384.3,134.9z"/>
<path class="st1" d="M473.8,613.3c2.1,2.5,5.8,2.8,8.4,0.7l30.5-25.6c2.5-2.1,2.8-5.8,0.7-8.4c-2.1-2.5-5.8-2.8-8.4-0.7L474.5,605
	C472,607.1,471.7,610.8,473.8,613.3z"/>
<path class="st1" d="M422.6,294.2c-2.1,3.1-0.7,7.7,3.1,10.2l46.1,30.9c3.8,2.5,8.6,2.1,10.6-1c2.1-3.1,0.7-7.7-3.1-10.2l-46.1-30.9
	C429.4,290.6,424.6,291,422.6,294.2z"/>
<path class="st1" d="M795,728.9c-2.6-2-6.3-1.6-8.3,1L762,761.1c-2,2.6-1.6,6.3,1,8.3s6.3,1.6,8.3-1l24.7-31.2
	C798,734.7,797.5,730.9,795,728.9z"/>
<path class="st1" d="M88.1,253.6c-2.1,2.5-1.8,6.3,0.8,8.4l30.6,25.5c2.5,2.1,6.3,1.8,8.4-0.8c2.1-2.5,1.8-6.3-0.8-8.4l-30.6-25.5
	C93.9,250.8,90.2,251.1,88.1,253.6z"/>
<path class="st1" d="M1699.6-9.2c-3.1-1.1-6.5,0.5-7.6,3.6l-13.4,37.5c-1.1,3.1,0.5,6.5,3.6,7.6s6.5-0.5,7.6-3.6l13.4-37.5
	C1704.3-4.7,1702.7-8.1,1699.6-9.2z"/>
<path class="st1" d="M1939.4,749.9c-1-3.1-4.4-4.8-7.5-3.7l-37.7,12.7c-3.1,1-4.8,4.4-3.7,7.5c1,3.1,4.4,4.8,7.5,3.7l37.7-12.7
	C1938.8,756.4,1940.5,753,1939.4,749.9z"/>
<path class="st1" d="M702.3,0.1c-3.2-0.8-6.4,1.1-7.2,4.3L685.3,43c-0.8,3.2,1.1,6.4,4.3,7.2s6.4-1.1,7.2-4.3l9.8-38.6
	C707.4,4.2,705.5,0.9,702.3,0.1z"/>
<path class="st1" d="M615.1,1045.7c0.1,3.3,2.8,5.9,6.1,5.8l39.8-0.9c3.3-0.1,5.9-2.8,5.8-6.1c-0.1-3.3-2.8-5.9-6.1-5.8l-39.8,0.9
	C617.6,1039.8,615,1042.5,615.1,1045.7z"/>
<path class="st1" d="M1401.2,980.5c-3.2-0.8-6.4,1-7.3,4.2l-10.3,38.5c-0.9,3.2,1,6.4,4.2,7.3c3.2,0.8,6.4-1,7.3-4.2l10.3-38.5
	C1406.2,984.6,1404.4,981.3,1401.2,980.5z"/>
<path class="st1" d="M1353.4,229.9c-2.5-2.1-6.2-1.9-8.4,0.6l-26,30.1c-2.1,2.5-1.9,6.2,0.6,8.4c2.5,2.1,6.2,1.9,8.4-0.6l26-30.1
	C1356.1,235.7,1355.9,232,1353.4,229.9z"/>
<path class="st1" d="M285.3,31.5c2.7,1.8,6.4,1.1,8.2-1.6L315.9-3c1.8-2.7,1.1-6.4-1.6-8.2s-6.4-1.1-8.2,1.6l-22.4,32.9
	C281.9,26,282.6,29.7,285.3,31.5z"/>
<path class="st1" d="M66.8,493.6c-0.8-3.2-4.1-5.1-7.2-4.2l-38.5,10.1c-3.2,0.8-5.1,4.1-4.2,7.2s4.1,5.1,7.2,4.2l38.5-10.1
	C65.8,500,67.7,496.8,66.8,493.6z"/>
<path class="st1" d="M1125.9,729.5c-2.5-2.1-6.3-1.7-8.4,0.8l-25.3,30.7c-2.1,2.5-1.7,6.3,0.8,8.4c2.5,2.1,6.3,1.7,8.4-0.8
	l25.3-30.7C1128.8,735.3,1128.5,731.6,1125.9,729.5z"/>
<path class="st1" d="M647.3,693.4c3.2,0.7,6.4-1.3,7.1-4.5l8.6-38.8c0.7-3.2-1.3-6.4-4.5-7.1c-3.2-0.7-6.4,1.3-7.1,4.5l-8.6,38.8
	C642.2,689.5,644.1,692.7,647.3,693.4z"/>
<path class="st1" d="M346.4,418.1c2.8-1.6,3.8-5.3,2.2-8.1l-19.8-34.6c-1.6-2.8-5.3-3.8-8.1-2.2c-2.8,1.6-3.8,5.3-2.2,8.1l19.8,34.6
	C340,418.8,343.6,419.8,346.4,418.1z"/>
<path class="st1" d="M1467.1,422.7c-3.2,0.8-5.1,4-4.4,7.2l9.4,38.7c0.8,3.2,4,5.1,7.2,4.4s5.1-4,4.4-7.2l-9.4-38.7
	C1473.5,423.9,1470.3,421.9,1467.1,422.7z"/>
<path class="st1" d="M1927,309.4c-2.4-2.2-6.2-2.1-8.4,0.3l-27,29.3c-2.2,2.4-2.1,6.2,0.3,8.4c2.4,2.2,6.2,2.1,8.4-0.3l27-29.3
	C1929.5,315.4,1929.4,311.6,1927,309.4z"/>
<path class="st1" d="M1931.8,26.4c-1.8-2.8-5.4-3.6-8.2-1.8L1890,45.9c-2.8,1.8-3.6,5.4-1.8,8.2c1.8,2.8,5.4,3.6,8.2,1.8l33.6-21.3
	C1932.7,32.8,1933.5,29.2,1931.8,26.4z"/>
<path class="st1" d="M773.8,199.4c3.2-0.5,5.5-3.5,5.1-6.7l-5.5-39.4c-0.5-3.2-3.5-5.5-6.7-5.1c-3.2,0.5-5.5,3.5-5.1,6.7l5.5,39.4
	C767.5,197.6,770.5,199.9,773.8,199.4z"/>
<path class="st1" d="M489.1,818.1c3.2-0.6,5.4-3.7,4.8-6.9l-7-39.2c-0.6-3.2-3.7-5.4-6.9-4.8c-3.2,0.6-5.4,3.7-4.8,6.9l7,39.2
	C482.8,816.6,485.9,818.7,489.1,818.1z"/>
<path class="st1" d="M282.8,1037.9c2.4,2.2,6.1,2.1,8.4-0.2l27.4-28.9c2.3-2.4,2.1-6.1-0.2-8.4c-2.4-2.3-6.1-2.1-8.4,0.2l-27.4,28.9
	C280.3,1031.9,280.5,1035.6,282.8,1037.9z"/>
<path class="st1" d="M133.1,841.7c0.7-3.2-1.3-6.4-4.5-7.1L89.7,826c-3.2-0.7-6.4,1.3-7.1,4.5s1.3,6.4,4.5,7.1l38.9,8.6
	C129.2,846.9,132.4,844.9,133.1,841.7z"/>
<path class="st1" d="M917.4,505.5c-3.3-0.1-6,2.4-6.2,5.7l-1.7,39.8c-0.1,3.3,2.4,6,5.7,6.2c3.3,0.1,6-2.4,6.2-5.7l1.7-39.8
	C923.3,508.4,920.7,505.7,917.4,505.5z"/>
<path class="st1" d="M1061.7,627.5c2.9,1.6,6.5,0.5,8.1-2.3l19.2-34.9c1.6-2.9,0.5-6.5-2.3-8.1c-2.9-1.6-6.5-0.5-8.1,2.3l-19.2,34.9
	C1057.8,622.3,1058.8,625.9,1061.7,627.5z"/>
<path class="st1" d="M1088.6,36.3c2.7-1.8,3.5-5.5,1.6-8.2L1068-5c-1.8-2.7-5.5-3.5-8.2-1.6s-3.5,5.5-1.6,8.2l22.1,33.1
	C1082.1,37.4,1085.8,38.1,1088.6,36.3z"/>
<path class="st1" d="M1375.2,684.6c2.1-2.6,1.6-6.3-0.9-8.3l-31-25c-2.6-2.1-6.3-1.6-8.3,0.9c-2.1,2.6-1.6,6.3,0.9,8.3l31,25
	C1369.5,687.6,1373.2,687.2,1375.2,684.6z"/>
<path class="st1" d="M1676.6,461.4c3-1.2,4.5-4.7,3.3-7.7l-14.7-37c-1.2-3-4.7-4.5-7.7-3.3s-4.5,4.7-3.3,7.7l14.7,37
	C1670.1,461.2,1673.6,462.6,1676.6,461.4z"/>
<path class="st1" d="M1867.8,678.7c1.3-3-0.1-6.5-3.1-7.8l-36.6-15.8c-3-1.3-6.5,0.1-7.8,3.1s0.1,6.5,3.1,7.8l36.6,15.8
	C1863,683.1,1866.5,681.7,1867.8,678.7z"/>
<path class="st1" d="M1177,211.5c-2.4,2.3-2.4,6-0.2,8.4l27.6,28.7c2.3,2.4,6,2.4,8.4,0.2c2.4-2.3,2.4-6,0.2-8.4l-27.6-28.7
	C1183.1,209.3,1179.4,209.3,1177,211.5z"/>
<path class="st1" d="M1558.7,760.6c3.2-0.7,5.2-3.9,4.5-7.1l-8.7-38.9c-0.7-3.2-3.9-5.2-7.1-4.5s-5.2,3.9-4.5,7.1l8.7,38.9
	C1552.4,759.3,1555.5,761.4,1558.7,760.6z"/>
<path class="st1" d="M1343.6,16.4c3-1.2,4.5-4.7,3.3-7.7l-14.7-37c-1.2-3-4.7-4.5-7.7-3.3s-4.5,4.7-3.3,7.7l14.7,37
	C1337.1,16.2,1340.6,17.6,1343.6,16.4z"/>
<path class="st1" d="M1729.7,240.4c-0.3-3.3-3.2-5.7-6.5-5.3l-39.7,3.7c-3.3,0.3-5.7,3.2-5.3,6.5c0.3,3.3,3.2,5.7,6.5,5.3l39.7-3.7
	C1727.7,246.5,1730.1,243.6,1729.7,240.4z"/>
<path class="st1" d="M861.6,1029.2c-2.1-2.6-5.8-3-8.3-0.9l-31,25c-2.6,2.1-3,5.8-0.9,8.3s5.8,3,8.3,0.9l31-25
	C863.3,1035.5,863.7,1031.8,861.6,1029.2z"/>
<path class="st1" d="M1954.8,908.4c2.6,2,6.3,1.6,8.3-1l24.8-31.2c2-2.6,1.6-6.3-1-8.3s-6.3-1.6-8.3,1l-24.8,31.2
	C1951.8,902.6,1952.2,906.4,1954.8,908.4z"/>
<path class="st1" d="M1981,630.4c-3-1.3-6.5,0.1-7.8,3.1l-15.6,36.7c-1.3,3,0.1,6.5,3.1,7.8s6.5-0.1,7.8-3.1l15.6-36.7
	C1985.5,635.2,1984,631.7,1981,630.4z"/>
<path class="st1" d="M1922.3,523.6c1.8-2.7,1.1-6.4-1.6-8.2l-33-22.3c-2.7-1.8-6.4-1.1-8.2,1.6c-1.8,2.7-1.1,6.4,1.6,8.2l33,22.3
	C1916.7,527.1,1920.4,526.4,1922.3,523.6z"/>
<path class="st1" d="M1990.3,253.4c3.2-0.7,5.2-3.9,4.5-7.1l-8.5-38.9c-0.7-3.2-3.9-5.2-7.1-4.5s-5.2,3.9-4.5,7.1l8.5,38.9
	C1984,252.1,1987.1,254.1,1990.3,253.4z"/>
<path class="st1" d="M1983.3,91.5c-2.9-1.5-6.5-0.4-8,2.5l-18.6,35.2c-1.5,2.9-0.4,6.5,2.5,8s6.5,0.4,8-2.5l18.6-35.2
	C1987.3,96.6,1986.2,93,1983.3,91.5z"/>
<path class="st1" d="M2017.5,465.9c3,1.3,6.5-0.1,7.8-3.1l15.9-36.5c1.3-3-0.1-6.5-3.1-7.8s-6.5,0.1-7.8,3.1l-15.9,36.5
	C2013.1,461.1,2014.5,464.5,2017.5,465.9z"/>
<path class="st1" d="M1765.7,747.3c0.1-3.3-2.4-6-5.7-6.2l-39.8-1.7c-3.3-0.1-6,2.4-6.2,5.7s2.4,6,5.7,6.2l39.8,1.7
	C1762.8,753.1,1765.5,750.6,1765.7,747.3z"/>
<path class="st1" d="M211.8,314.6c-3.1-0.9-6.4,0.8-7.4,4l-11.5,38.1c-0.9,3.1,0.8,6.4,4,7.4s6.4-0.8,7.4-4l11.5-38.1
	C216.7,318.8,215,315.5,211.8,314.6z"/>
<path class="st1" d="M110.3,14.7c-3.3-0.4-6.2,2-6.6,5.2l-4.5,39.6c-0.4,3.3,2,6.2,5.2,6.6c3.3,0.4,6.2-2,6.6-5.2l4.5-39.6
	C115.9,18,113.5,15,110.3,14.7z"/>
<path class="st1" d="M398.4,486.4c-2.9,1.5-4,5.1-2.5,8l18.4,35.3c1.5,2.9,5.1,4,8,2.5s4-5.1,2.5-8l-18.4-35.3
	C404.9,486,401.3,484.9,398.4,486.4z"/>
<path class="st1" d="M1000.1,322.6c-2.1,2.5-1.8,6.3,0.8,8.4l30.6,25.5c2.5,2.1,6.3,1.8,8.4-0.8c2.1-2.5,1.8-6.3-0.8-8.4l-30.6-25.5
	C1005.9,319.8,1002.2,320.1,1000.1,322.6z"/>
<path class="st1" d="M77,668.5c1.7-2.8,0.9-6.4-1.9-8.2l-33.7-21.2c-2.8-1.7-6.4-0.9-8.2,1.9c-1.7,2.8-0.9,6.4,1.9,8.2l33.7,21.2
	C71.6,672.2,75.3,671.3,77,668.5z"/>
<path class="st1" d="M-50.4,352.3c-2.9,1.5-4.1,5.1-2.6,8l18.1,35.5c1.5,2.9,5.1,4.1,8,2.6s4.1-5.1,2.6-8l-18.1-35.5
	C-43.9,352-47.5,350.8-50.4,352.3z"/>
<path class="st1" d="M-67.2,538.7c-3.2,0.4-5.5,3.4-5.1,6.7l5.5,39.5c0.4,3.2,3.4,5.5,6.7,5.1c3.2-0.4,5.5-3.4,5.1-6.7l-5.5-39.5
	C-60.9,540.6-63.9,538.3-67.2,538.7z"/>
<path class="st1" d="M6,747.5c-2.1-2.5-5.9-2.8-8.4-0.6l-30.2,25.9c-2.5,2.1-2.8,5.9-0.6,8.4c2.1,2.5,5.9,2.8,8.4,0.6l30.2-25.9
	C7.8,753.7,8.1,750,6,747.5z"/>
<path class="st1" d="M-45.4,979.7c-3.3-0.4-6.2,1.9-6.6,5.1l-5,39.5c-0.4,3.3,1.9,6.2,5.1,6.6c3.3,0.4,6.2-1.9,6.6-5.1l5-39.5
	C-39.9,983.1-42.2,980.1-45.4,979.7z"/>
<path class="st1" d="M-13.8,225.5c-1.1-3.1-4.5-4.7-7.6-3.6l-37.5,13.4c-3.1,1.1-4.7,4.5-3.6,7.6c1.1,3.1,4.5,4.7,7.6,3.6l37.5-13.4
	C-14.3,231.9-12.7,228.6-13.8,225.5z"/>
<path class="st1" d="M-18,893.5c1.7-2.8,0.9-6.4-1.9-8.2l-33.7-21.2c-2.8-1.7-6.4-0.9-8.2,1.9s-0.9,6.4,1.9,8.2l33.7,21.2
	C-23.4,897.2-19.7,896.3-18,893.5z"/>
<path class="st1" d="M211.4,105.9c-2.2-2.4-6-2.6-8.4-0.4l-29.4,26.9c-2.4,2.2-2.6,6-0.4,8.4c2.2,2.4,6,2.6,8.4,0.4l29.4-26.9
	C213.5,112.1,213.7,108.3,211.4,105.9z"/>
<path class="st1" d="M508.4,54.9c2.2,2.4,6,2.6,8.4,0.3l29.3-27c2.4-2.2,2.6-6,0.3-8.4s-6-2.6-8.4-0.3l-29.3,27
	C506.3,48.7,506.2,52.5,508.4,54.9z"/>
<path class="st1" d="M932.8,874.4c1.4-2.9,0.2-6.5-2.8-7.9l-35.9-17.2c-2.9-1.4-6.5-0.2-7.9,2.8c-1.4,2.9-0.2,6.5,2.8,7.9l35.9,17.2
	C927.8,878.6,931.3,877.4,932.8,874.4z"/>
<path class="st1" d="M579.1,471.9c-0.2-3.2-3-5.8-6.2-5.6l-39.8,1.9c-3.2,0.2-5.8,3-5.6,6.2c0.2,3.3,3,5.8,6.2,5.6l39.8-1.9
	C576.8,477.9,579.3,475.1,579.1,471.9z"/>
<path class="st1" d="M763.5,487.5c3.2-0.4,5.7-3.3,5.2-6.6l-4.3-39.6c-0.4-3.2-3.3-5.7-6.6-5.2s-5.7,3.3-5.2,6.6l4.3,39.6
	C757.4,485.6,760.3,487.9,763.5,487.5z"/>
</svg>
