<?xml version="1.0" encoding="utf-8"?>
<!-- Generator: Adobe Illustrator 22.1.0, SVG Export Plug-In . SVG Version: 6.00 Build 0)  -->
<svg version="1.1" id="Layer_1" xmlns="http://www.w3.org/2000/svg" xmlns:xlink="http://www.w3.org/1999/xlink" x="0px" y="0px"
	 viewBox="0 0 500 500" style="enable-background:new 0 0 500 500;" xml:space="preserve">
<style type="text/css">
	.st0{fill:#FFE33B;}
	.st1{fill:#231F20;}
</style>
<rect class="st0" width="500" height="500"/>
<g>
	<g>
		<path class="st1" d="M226.2,375.7c-2.6,0-4.7-2.1-4.7-4.7v-56.4c0-2.6,2.1-4.7,4.7-4.7c2.6,0,4.7,2.1,4.7,4.7v56.4
			C230.9,373.6,228.8,375.7,226.2,375.7z"/>
	</g>
	<g>
		<path class="st1" d="M260.7,375.7c-2.6,0-4.7-2.1-4.7-4.7v-56.4c0-2.6,2.1-4.7,4.7-4.7s4.7,2.1,4.7,4.7v56.4
			C265.4,373.6,263.3,375.7,260.7,375.7z"/>
	</g>
	<g>
		<path class="st1" d="M247.6,319.4h-10.2c-37,0-67.2-30.1-67.2-67.2v-5.3h9.4v5.3c0,31.8,25.9,57.8,57.8,57.8h10.2V319.4z"/>
	</g>
	<g>
		<path class="st1" d="M174.9,168.5c-1.2,0-2.4-0.5-3.3-1.4c-0.9-0.9-1.4-2.1-1.4-3.3c0-1.2,0.5-2.4,1.4-3.3
			c0.9-0.9,2.1-1.4,3.3-1.4c1.2,0,2.4,0.5,3.3,1.4c0.9,0.9,1.4,2.1,1.4,3.3s-0.5,2.4-1.4,3.3C177.4,168.1,176.2,168.5,174.9,168.5z"
			/>
	</g>
	<g>
		<path class="st1" d="M409,319.4H237.4V310h158.7L193,139.5c-5.2-3.9-11.5-5.9-18-5.9c-16.7,0-30.3,13.6-30.3,30.3
			c0,10.7,5.7,20.7,14.8,26.1c0,0,0,0,0,0c12.4,7,20,20.2,20,34.5v27.8h-9.4v-27.8c0-10.8-5.8-20.8-15.2-26.3c0,0-0.1,0-0.1-0.1
			c-12.1-7.1-19.6-20.2-19.6-34.2c0-21.9,17.8-39.6,39.6-39.6c8.7,0,16.9,2.7,23.7,7.9c0.1,0,0.2,0.1,0.2,0.2l213,178.7
			c1.5,1.3,2.1,3.3,1.4,5.2C412.7,318.1,411,319.4,409,319.4z"/>
	</g>
	<g>
		<path class="st1" d="M386.3,300.3h-134c-29.5,0-53.4-24-53.4-53.4s24-53.4,53.4-53.4c12.4,0,24.5,4.4,34,12.2c0,0,0.1,0,0.1,0.1
			l102.8,86.3c1.5,1.3,2.1,3.3,1.4,5.2C390,299.1,388.2,300.3,386.3,300.3z M255.4,290.9h118.1L280.5,213c0,0,0,0-0.1,0
			c-7.9-6.6-17.9-10.2-28.1-10.2c-24.3,0-44.1,19.8-44.1,44.1s19.8,44.1,44.1,44.1H255.4z"/>
	</g>
	<g>
		<path class="st1" d="M91.1,191.7c-2.1,0-4-1.4-4.5-3.5c-0.6-2.2,0.5-4.4,2.5-5.4l48.9-23.7l4.1,8.4l-26.9,13.1l30.3-2.2l0.7,9.3
			l-54.6,4C91.3,191.7,91.2,191.7,91.1,191.7z"/>
	</g>
</g>
</svg>
